<?xml version="1.0" encoding="UTF-8" standalone="no"?>
<!DOCTYPE svg PUBLIC "-//W3C//DTD SVG 1.1//EN" "http://www.w3.org/Graphics/SVG/1.1/DTD/svg11.dtd">
<svg width="100%" height="100%" viewBox="0 0 1024 1024" version="1.1" xmlns="http://www.w3.org/2000/svg" xmlns:xlink="http://www.w3.org/1999/xlink" xml:space="preserve" xmlns:serif="http://www.serif.com/" style="fill-rule:evenodd;clip-rule:evenodd;stroke-linejoin:round;stroke-miterlimit:2;">
    <g transform="matrix(1,0,0,1,-1074,0)">
        <g id="Light" transform="matrix(1,0,0,1,1074,0)">
            <rect x="0" y="0" width="1024" height="1024" style="fill:none;"/>
            <g id="Wheel">
                <path d="M512,815.611C512,815.611 343.849,818.02 300.049,816.517C281.455,815.879 274.992,812.16 249.105,805.429C220.217,797.919 220.177,796.247 185.227,774.687C175.47,768.669 151.041,746.653 137.025,717.759C127.118,697.337 129.962,685.796 125.925,675.011C116.497,649.821 116.265,651.177 109.507,631.065C108.14,626.998 105.396,618.242 103.108,611.694C99.381,601.031 95.502,587.672 93.348,573.978C87.467,536.595 86.789,523.754 85.593,497.685C84.109,465.328 89.519,408.87 99.017,370.955C107.888,335.545 133.377,291.379 142.584,270.879C146.015,263.242 152.211,254.649 156.31,250.69C159.051,248.041 163.098,247.122 167.175,247.122C171.437,247.122 172.259,246.562 179.835,247.957C190.584,249.937 217.271,262.32 228.761,268.528C236.402,272.656 244.034,282.978 250.234,285.79C269.735,294.636 281.9,302.156 290.831,305.487C294.477,306.847 292.261,307.494 301.341,301.843C305.4,299.317 347.595,314.502 354.466,319.387C360.269,323.512 361.457,322.895 369.796,332.903C378.136,342.91 394.999,375.276 406.118,383.616C417.238,391.955 429.756,392.074 444.767,391.518C459.779,390.962 512,392.11 512,392.11C512,392.11 564.221,390.962 579.233,391.518C594.244,392.074 606.762,391.955 617.882,383.616C629.001,375.276 645.864,342.91 654.204,332.903C662.543,322.895 663.731,323.512 669.534,319.387C676.405,314.502 718.6,299.317 722.659,301.843C731.739,307.494 729.523,306.847 733.169,305.487C742.1,302.156 754.265,294.636 773.766,285.79C779.966,282.978 787.598,272.656 795.239,268.528C806.729,262.32 833.416,249.937 844.165,247.957C851.741,246.562 852.563,247.122 856.825,247.122C860.902,247.122 864.949,248.041 867.69,250.69C871.789,254.649 877.985,263.242 881.416,270.879C890.623,291.379 916.112,335.545 924.983,370.955C934.481,408.87 939.891,465.328 938.407,497.685C937.211,523.754 936.533,536.595 930.652,573.978C928.498,587.672 924.619,601.031 920.892,611.694C918.604,618.242 915.86,626.998 914.493,631.065C907.735,651.177 907.503,649.821 898.075,675.011C894.038,685.796 896.882,697.337 886.975,717.759C872.959,746.653 848.53,768.669 838.773,774.687C803.823,796.247 803.783,797.919 774.895,805.429C749.008,812.16 742.545,815.879 723.951,816.517C680.151,818.02 512,815.611 512,815.611ZM266.748,352.173C263.936,351.939 265.803,364.771 263.241,367.618C260.679,370.465 257.686,368.342 254.27,371.473C250.854,374.605 247.96,374.946 242.836,380.07C237.712,385.194 238.851,384.625 236.004,392.311C233.158,399.997 229.457,414.23 228.603,420.207C227.749,426.185 224.333,450.951 225.187,456.359C226.041,461.768 225.187,461.199 228.888,462.622C232.588,464.045 233.158,465.184 237.428,464.899C241.697,464.615 268.74,460.914 278.703,457.498C288.667,454.082 292.936,450.666 298.675,446.396C304.414,442.126 307.169,431.025 305.746,427.609C304.323,424.193 306.6,415.368 305.462,407.967C304.323,400.566 302.046,386.902 302.33,379.216C302.615,371.53 295.498,363.56 291.798,360.998C288.097,358.436 271.872,352.6 266.748,352.173ZM260.072,567.065C255.802,567.35 257.225,563.649 239.007,564.503C220.789,565.357 233.599,565.642 225.059,567.919C216.519,570.197 224.205,569.627 219.65,572.189C215.096,574.751 211.68,576.459 207.125,580.444C202.57,584.43 201.147,588.984 200.009,592.97C198.87,596.955 198.301,600.655 202.57,608.057C206.84,615.458 211.68,627.698 223.635,650.186C235.591,672.675 239.292,676.375 245.27,685.2C251.247,694.024 261.78,702.849 270.604,710.25C279.429,717.651 276.013,718.79 293.947,723.06C311.88,727.329 304.194,724.483 319.851,726.476C335.507,728.468 434.285,727.329 445.102,727.329C455.919,727.329 449.941,728.183 456.203,721.352C462.466,714.52 463.492,711.011 464.771,704.234C466.004,697.698 464.561,700.379 465.597,693.455C466.402,688.076 466.386,690.56 466.167,686.908C466.105,685.883 466.033,679.939 461.612,675.237C452.681,665.737 449.372,663.85 440.832,657.018C432.292,650.186 436.277,654.456 396.14,624.567C356.003,594.677 338.354,591.831 327.537,585.284C316.72,578.736 260.072,567.065 260.072,567.065ZM757.252,352.173C752.128,352.6 735.903,358.436 732.202,360.998C728.502,363.56 721.385,371.53 721.67,379.216C721.954,386.902 719.677,400.566 718.538,407.967C717.4,415.368 719.677,424.193 718.254,427.609C716.831,431.025 719.586,442.126 725.325,446.396C731.064,450.666 735.333,454.082 745.297,457.498C755.26,460.914 782.303,464.615 786.572,464.899C790.842,465.184 791.412,464.045 795.112,462.622C798.813,461.199 797.959,461.768 798.813,456.359C799.667,450.951 796.251,426.185 795.397,420.207C794.543,414.23 790.842,399.997 787.996,392.311C785.149,384.625 786.288,385.194 781.164,380.07C776.04,374.946 773.146,374.605 769.73,371.473C766.314,368.342 763.321,370.465 760.759,367.618C758.197,364.771 760.064,351.939 757.252,352.173ZM763.928,567.065C763.928,567.065 707.28,578.736 696.463,585.284C685.646,591.831 667.997,594.677 627.86,624.567C587.723,654.456 591.708,650.186 583.168,657.018C574.628,663.85 571.319,665.737 562.388,675.237C557.967,679.939 557.895,685.883 557.833,686.908C557.614,690.56 557.598,688.076 558.403,693.455C559.439,700.379 557.996,697.698 559.229,704.234C560.508,711.011 561.534,714.52 567.797,721.352C574.059,728.183 568.081,727.329 578.898,727.329C589.715,727.329 688.493,728.468 704.149,726.476C719.806,724.483 712.12,727.329 730.053,723.06C747.987,718.79 744.571,717.651 753.396,710.25C762.22,702.849 772.753,694.024 778.73,685.2C784.708,676.375 788.409,672.675 800.365,650.186C812.32,627.698 817.16,615.458 821.43,608.057C825.699,600.655 825.13,596.955 823.991,592.97C822.853,588.984 821.43,584.43 816.875,580.444C812.32,576.459 808.904,574.751 804.35,572.189C799.795,569.627 807.481,570.197 798.941,567.919C790.401,565.642 803.211,565.357 784.993,564.503C766.775,563.649 768.198,567.35 763.928,567.065Z" style="fill:rgb(22,155,98);"/>
                <g transform="matrix(1,0,0,1,0,9)">
                    <circle cx="512" cy="512" r="97.908" style="fill:rgb(226,226,226);"/>
                </g>
                <g transform="matrix(1,0,0,1.364587,0,-142.543101)">
                    <path d="M512,414.51L555.55,479.664L468.45,479.664L512,414.51Z" style="fill:rgb(35,35,35);"/>
                </g>
            </g>
        </g>
    </g>
</svg>
