<?xml version="1.0" encoding="UTF-8" standalone="no"?>
<!DOCTYPE svg PUBLIC "-//W3C//DTD SVG 1.1//EN" "http://www.w3.org/Graphics/SVG/1.1/DTD/svg11.dtd">
<svg width="100%" height="100%" viewBox="0 0 2000 2000" version="1.1" xmlns="http://www.w3.org/2000/svg" xmlns:xlink="http://www.w3.org/1999/xlink" xml:space="preserve" xmlns:serif="http://www.serif.com/" style="fill-rule:evenodd;clip-rule:evenodd;stroke-linecap:round;stroke-linejoin:round;stroke-miterlimit:1.5;">
    <path d="M1059.961,46.953C1096.531,81.943 1139.725,103.904 1189.543,112.838C1250.915,125.95 1310.76,145.395 1368.117,170.86C1413.672,192.915 1461.525,200.536 1511.678,193.725C1545.462,215.165 1577.865,238.708 1608.696,264.213C1617.716,314.015 1639.752,357.172 1674.805,393.681C1716.748,440.362 1753.734,491.27 1785.169,545.585C1809.06,590.204 1843.295,624.498 1887.872,648.466C1902.602,685.67 1914.979,723.762 1924.93,762.518C1902.954,808.111 1895.415,855.978 1902.314,906.118C1908.808,968.538 1908.808,1031.462 1902.314,1093.882C1895.415,1144.022 1902.954,1191.889 1924.93,1237.482C1914.979,1276.238 1902.602,1314.33 1887.872,1351.534C1843.295,1375.502 1809.06,1409.796 1785.169,1454.415C1753.734,1508.73 1716.748,1559.638 1674.805,1606.319C1639.752,1642.828 1617.716,1685.985 1608.696,1735.787C1577.865,1761.292 1545.462,1784.835 1511.678,1806.275C1461.525,1799.464 1413.672,1807.085 1368.117,1829.14C1310.76,1854.605 1250.915,1874.05 1189.543,1887.162C1139.725,1896.096 1096.531,1918.057 1059.961,1953.047C1020.026,1955.559 979.974,1955.559 940.039,1953.047C903.469,1918.057 860.275,1896.096 810.457,1887.162C749.085,1874.05 689.24,1854.605 631.883,1829.14C586.328,1807.085 538.475,1799.464 488.322,1806.275C454.538,1784.835 422.135,1761.292 391.304,1735.787C382.284,1685.985 360.248,1642.828 325.195,1606.319C283.252,1559.638 246.266,1508.73 214.831,1454.415C190.94,1409.796 156.705,1375.502 112.128,1351.534C97.398,1314.33 85.021,1276.238 75.07,1237.482C97.046,1191.889 104.585,1144.022 97.686,1093.882C91.192,1031.462 91.192,968.538 97.686,906.118C104.585,855.978 97.046,808.111 75.07,762.518C85.021,723.762 97.398,685.67 112.128,648.466C156.705,624.498 190.94,590.204 214.831,545.585C246.266,491.27 283.252,440.362 325.195,393.681C360.248,357.172 382.284,314.015 391.304,264.213C422.135,238.708 454.538,215.165 488.322,193.725C538.475,200.536 586.328,192.915 631.883,170.86C689.24,145.395 749.085,125.95 810.457,112.838C860.275,103.904 903.469,81.943 940.039,46.953C979.974,44.441 1020.026,44.441 1059.961,46.953Z"/>
    <circle cx="1000" cy="1000" r="591.198" style="fill:url(#_Linear1);"/>
    <g transform="matrix(0.942601,0,0,0.942601,57.399103,57.399103)">
        <circle cx="1000" cy="1000" r="591.198" style="fill:url(#_Linear2);stroke:white;stroke-opacity:0.8;stroke-width:1.06px;"/>
    </g>
    <g transform="matrix(0.449393,0,0,0.38024,432.897849,28.562176)">
        <path d="M1261.93,114.528L1523.86,1000L1000,1000L1261.93,114.528Z" style="fill:rgb(235,235,235);"/>
    </g>
    <defs>
        <linearGradient id="_Linear1" x1="0" y1="0" x2="1" y2="0" gradientUnits="userSpaceOnUse" gradientTransform="matrix(1182.396607,0,-0,1182.396607,408.801697,1000)"><stop offset="0" style="stop-color:black;stop-opacity:1"/><stop offset="1" style="stop-color:rgb(77,77,77);stop-opacity:1"/></linearGradient>
        <linearGradient id="_Linear2" x1="0" y1="0" x2="1" y2="0" gradientUnits="userSpaceOnUse" gradientTransform="matrix(1182.396607,0,0,1182.396607,408.801697,1000)"><stop offset="0" style="stop-color:white;stop-opacity:1"/><stop offset="1" style="stop-color:black;stop-opacity:0"/></linearGradient>
    </defs>
</svg>
